<svg version="1.1" id="Layer_1" xmlns="http://www.w3.org/2000/svg" xmlns:xlink="http://www.w3.org/1999/xlink" x="0px" y="0px"
	 width="100%" viewBox="0 0 1024 736" enable-background="new 0 0 1024 736" xml:space="preserve">
<path fill="#000000" opacity="1.000000" stroke="none" 
	d="
M78.468658,737.000000 
	C58.977295,721.234436 42.342262,702.978027 24.944553,685.548645 
	C13.355734,673.938782 12.035858,658.963989 15.630621,643.546265 
	C18.001337,633.378418 22.905409,624.323425 28.635437,615.611694 
	C35.957623,604.479309 42.719891,592.980164 49.946709,581.783142 
	C63.274479,561.133301 84.401802,556.789734 105.162819,570.274475 
	C123.322960,582.069946 141.466003,593.891785 159.627243,605.685608 
	C168.277893,611.303406 174.378448,610.727356 180.966492,603.655701 
	C180.604782,601.172974 178.321533,600.437134 176.621567,599.298218 
	C158.352829,587.058594 139.973495,574.983093 121.759453,562.663147 
	C106.009499,552.009888 95.598999,538.038025 95.768509,518.087219 
	C95.849983,508.499023 99.384438,499.880066 104.088432,491.695770 
	C115.959473,471.041718 127.893280,450.423645 139.712921,429.740295 
	C145.415039,419.762115 151.182404,409.806396 156.447266,399.596619 
	C164.549500,383.884583 177.911621,376.304565 194.833939,375.979431 
	C226.985138,375.361786 259.158081,375.520203 291.317474,375.828339 
	C308.458405,375.992584 326.281128,392.816620 316.313629,414.488922 
	C308.173676,432.187469 298.938812,449.398163 288.523773,465.884491 
	C282.430389,475.529907 273.367706,480.514984 261.640076,480.333954 
	C250.811035,480.166809 239.976913,480.315521 229.145096,480.351746 
	C226.830322,480.359467 224.473114,480.250275 222.397018,481.534424 
	C221.952530,489.422729 228.500885,495.460419 238.136307,495.680481 
	C248.463760,495.916351 258.799438,495.906555 269.130341,495.833679 
	C275.343964,495.789856 280.851379,497.328369 285.910828,501.123962 
	C292.569977,506.119629 299.518066,510.731567 306.364532,515.475830 
	C316.893402,522.771851 319.760864,533.307312 313.733582,544.739929 
	C296.335236,577.741333 278.659180,610.596191 261.256195,643.595215 
	C247.425842,669.819946 233.574631,696.030457 219.364685,722.053406 
	C216.256561,727.745483 212.625168,732.689575 207.193390,736.729187 
	C164.312439,737.000000 121.624878,737.000000 78.468658,737.000000 
z"/>
<path fill="#000000" opacity="1.000000" stroke="none" 
	d="
M256.468658,737.000000 
	C243.850403,724.198547 241.937943,709.172363 250.930939,694.151184 
	C273.886749,655.807678 294.223145,616.062256 314.398743,576.226013 
	C320.571259,564.038513 326.829224,551.894287 333.058655,539.735657 
	C334.734528,536.464722 336.198181,533.132812 337.016724,529.515076 
	C338.888519,521.242493 336.606689,515.257080 329.513824,510.544128 
	C326.323242,508.424164 322.942535,506.586029 319.789215,504.415039 
	C306.780426,495.458588 301.750824,477.716095 308.615540,463.554169 
	C319.885773,440.303680 332.618347,417.828918 345.722076,395.572693 
	C352.995392,383.219238 363.994690,376.881714 378.343933,376.833435 
	C411.009460,376.723572 443.677399,376.545227 476.340546,376.830475 
	C494.672150,376.990540 504.840118,387.813538 505.391846,406.032990 
	C506.249451,434.351715 506.043060,462.660858 505.339813,490.976868 
	C504.928406,507.544189 490.777710,518.975708 474.489349,515.619263 
	C467.140533,514.104919 460.855438,510.389038 454.941925,505.942535 
	C439.628906,494.428284 424.318665,482.910339 408.981140,471.428802 
	C407.695251,470.466248 406.615021,469.005035 404.735748,469.114105 
	C400.167572,476.308533 402.338043,486.503204 410.182129,493.136475 
	C416.030640,498.082153 422.201630,502.646240 428.224335,507.386230 
	C432.806366,510.992310 437.506897,514.460449 441.936066,518.245728 
	C456.840118,530.982971 455.942566,550.668396 440.042664,562.119446 
	C432.599121,567.480286 424.871674,572.386780 416.895203,576.921692 
	C408.630035,581.620728 402.895111,588.158264 402.350159,598.170959 
	C402.241302,600.171448 402.075500,602.512390 403.937683,603.676086 
	C406.016357,604.975159 407.658783,602.963440 409.260162,601.947571 
	C428.253052,589.899231 447.601959,578.415161 466.221832,565.773193 
	C474.143921,560.394470 482.849854,559.145447 491.951996,562.476196 
	C500.899414,565.750427 506.082275,572.699402 506.109985,582.232056 
	C506.229553,623.397156 506.414948,664.565002 506.026642,705.726685 
	C505.912537,717.822205 502.493988,729.186829 491.232727,736.763977 
	C412.979095,737.000000 334.958221,737.000000 256.468658,737.000000 
z"/>
<path fill="#000000" opacity="1.000000" stroke="none" 
	d="
M834.468628,737.000000 
	C819.939697,726.879211 813.444702,711.446411 806.449585,696.622925 
	C793.220581,668.589111 778.383789,641.399292 764.021912,613.964905 
	C738.687500,565.570618 712.909607,517.408447 687.335632,469.139465 
	C677.122131,449.862366 667.005676,430.533691 656.742065,411.283417 
	C653.432739,405.076508 651.150513,398.776489 653.326233,391.700195 
	C656.281250,382.089508 664.191895,376.775177 675.642822,376.752594 
	C712.793762,376.679382 749.944885,376.610016 787.095764,376.651489 
	C793.738037,376.658905 800.321594,375.779266 807.037598,376.594177 
	C826.778870,378.989624 839.202759,389.887726 845.254456,408.432556 
	C849.665527,421.949890 850.388977,436.200348 853.026367,450.074768 
	C857.841003,475.403290 862.180725,500.822388 866.672363,526.211914 
	C869.627625,542.916809 872.636414,559.614136 875.370483,576.355774 
	C877.596497,589.986694 888.211243,595.710999 900.257690,588.847168 
	C910.807617,582.835999 920.786133,575.830750 931.139343,569.463440 
	C950.375244,557.633179 973.654175,561.650757 985.003174,582.132751 
	C994.119568,598.585327 1005.923767,613.443359 1014.172119,630.413696 
	C1021.655823,645.810913 1023.384399,661.559082 1015.874512,677.559021 
	C1012.145630,685.503540 1005.225220,690.674133 999.183838,696.596741 
	C988.755615,706.819763 978.267578,716.981995 967.840515,727.206299 
	C964.512329,730.469849 961.295471,733.846619 957.205811,736.740112 
	C916.312439,737.000000 875.624878,737.000000 834.468628,737.000000 
M970.242126,690.693665 
	C968.502930,692.940979 966.553711,694.937988 964.050476,696.376282 
	C962.847961,697.067139 961.907227,698.138367 962.634888,699.658081 
	C963.268005,700.980347 964.515259,700.773254 965.682251,700.489014 
	C972.628723,698.796875 979.573853,697.099365 987.235901,695.228760 
	C982.298584,691.282593 979.928223,685.984924 976.620422,680.870667 
	C974.416687,684.318909 972.556763,687.229126 970.242126,690.693665 
z"/>
<path fill="#000000" opacity="1.000000" stroke="none" 
	d="
M536.468628,737.000000 
	C523.614014,728.551270 520.870972,716.298401 520.897278,702.127380 
	C521.079346,603.963074 520.908875,505.798126 520.854248,407.633392 
	C520.842651,386.825409 530.964905,376.745483 551.936523,376.707001 
	C565.102966,376.682831 578.276978,376.982056 591.434143,376.631104 
	C608.084961,376.186920 620.511230,383.616516 630.383179,396.308868 
	C635.323792,402.661041 638.843872,409.880829 642.529663,416.961517 
	C679.143738,487.299622 715.603577,557.718079 752.268738,628.029480 
	C763.744324,650.035828 775.636414,671.826599 787.492188,693.632141 
	C791.314148,700.661682 793.710205,707.839661 793.469849,715.992371 
	C793.228333,724.186584 789.907349,730.744690 784.213745,736.743591 
	C747.645752,737.000000 711.291565,737.000000 674.268005,736.735962 
	C668.751282,732.368103 665.069702,727.422791 664.198425,721.035950 
	C662.827881,710.989685 661.443665,700.914734 660.818909,690.805298 
	C660.047607,678.324097 664.446472,672.039062 676.168213,667.450500 
	C683.138733,664.721863 690.220215,662.277954 697.228149,659.643127 
	C700.230164,658.514526 702.952454,656.933228 704.686890,654.070312 
	C705.769409,652.283447 706.425354,650.340210 705.380676,648.408142 
	C704.427856,646.645996 702.494934,647.059753 700.875000,647.056274 
	C684.726990,647.021423 668.578918,647.004211 652.430908,647.004028 
	C631.287964,647.003784 610.144897,647.002197 589.002136,647.068542 
	C586.967407,647.074951 584.313477,646.428101 583.536499,649.274597 
	C582.850220,651.788940 584.314453,653.779297 586.039429,655.444458 
	C588.033691,657.369507 590.712830,657.894104 593.238953,658.715576 
	C604.313293,662.317200 615.419678,665.825073 626.445557,669.569519 
	C637.235229,673.233826 643.594849,680.896606 644.971375,692.164856 
	C645.917542,699.909851 646.920532,707.656128 647.475098,715.467712 
	C648.040100,723.425964 647.272644,730.692017 642.000000,737.000000 
	C606.979126,737.000000 571.958191,737.000000 536.468628,737.000000 
M589.092102,548.274475 
	C588.567566,553.414185 588.120178,558.538147 589.090027,563.696533 
	C589.666199,566.760864 591.334961,568.560913 594.396423,568.687073 
	C601.715454,568.988892 609.047668,569.414001 616.362610,569.251404 
	C624.304993,569.074890 625.732971,566.448059 622.153076,559.269348 
	C614.275330,543.471985 606.312988,527.716492 598.311035,511.981628 
	C597.149170,509.696930 596.162292,506.212555 593.009033,506.902802 
	C590.184143,507.521088 590.664795,511.081024 590.536621,513.388489 
	C589.908752,524.691833 589.566772,536.010986 589.092102,548.274475 
z"/>
<path fill="#000000" opacity="1.000000" stroke="none" 
	d="
M381.998291,359.150269 
	C363.340118,359.064148 345.182129,358.927734 327.024078,358.913605 
	C293.389893,358.887451 259.755615,358.930634 226.121399,358.950470 
	C220.439453,358.953796 214.754211,358.781677 209.321747,356.950165 
	C186.529739,349.265869 179.174545,321.291199 195.568832,303.157745 
	C206.175644,291.425690 217.552399,280.380341 228.787659,269.232361 
	C231.622589,266.419464 232.959137,263.602203 232.811539,259.588196 
	C231.993088,237.330368 235.475449,215.751663 243.961075,195.113327 
	C254.550751,169.357590 272.466614,149.605804 294.872009,133.557159 
	C311.090118,121.940384 328.849182,113.210609 346.988556,105.132080 
	C374.002960,93.100998 399.175537,77.780739 424.225861,62.178410 
	C444.644409,49.460934 466.102844,38.889084 489.598877,32.765682 
	C515.288208,26.070663 541.307373,25.465761 567.480591,27.856182 
	C598.723206,30.709599 627.224609,41.011681 651.921692,60.755795 
	C671.297363,76.245667 686.318726,95.503220 699.255676,116.480865 
	C720.689941,151.237274 736.461487,188.677719 751.171875,226.604004 
	C756.952087,241.506683 762.528320,256.490295 768.016418,271.503235 
	C769.518433,275.612061 772.673157,277.899017 775.967834,280.143707 
	C787.257996,287.835846 798.743713,295.265015 809.231995,304.055786 
	C816.361694,310.031525 821.361450,317.466827 822.158752,326.952240 
	C823.687195,345.136047 811.156128,359.630798 792.425598,359.779755 
	C764.275024,360.003632 736.116882,360.236755 707.952026,359.620972 
	C677.468384,358.954498 646.962341,359.272064 616.466003,359.234589 
	C551.640381,359.154968 486.814789,359.117279 421.989197,359.077423 
	C408.825653,359.069336 395.662048,359.127472 381.998291,359.150269 
M721.361572,171.068634 
	C720.232178,168.654358 719.109131,166.237076 717.972351,163.826294 
	C705.859985,138.140244 692.155457,113.402046 674.215515,91.241493 
	C653.621887,65.802933 628.074036,47.684864 596.215881,39.064575 
	C580.864014,34.910603 565.205139,33.365833 549.317139,32.846302 
	C528.185791,32.155319 507.425598,33.966522 487.054230,39.641048 
	C455.762604,48.357449 428.944275,65.926247 401.806366,82.861420 
	C398.773926,84.753799 398.710938,86.881981 400.618225,89.486649 
	C403.231140,93.054848 406.718170,95.571396 410.506622,97.758255 
	C418.468567,102.354240 427.302460,103.979698 436.188080,105.494637 
	C438.403656,105.872375 441.495850,105.887192 440.987915,109.210693 
	C440.513580,112.314430 437.564484,111.761520 435.280701,111.705276 
	C411.290649,111.114471 387.288635,110.927414 363.336700,112.384949 
	C348.483337,113.288818 333.910217,115.947075 320.990906,124.246513 
	C314.546509,128.386414 307.727417,131.964493 301.428314,136.305313 
	C276.424072,153.536209 256.767792,175.093414 246.776901,204.452820 
	C238.722610,228.121368 236.928314,252.412674 240.288422,276.947144 
	C244.696304,309.132202 262.295013,331.593109 292.412720,344.143555 
	C307.106354,350.266602 322.502777,352.696228 338.258728,352.764862 
	C382.082611,352.955658 425.907928,353.019501 469.731995,352.896667 
	C495.544678,352.824310 521.383179,353.999573 547.164368,351.836090 
	C557.958435,350.930237 568.819641,349.989929 578.552246,344.598480 
	C586.426514,340.236481 590.591309,333.523804 590.961731,324.332336 
	C591.481506,311.437744 585.544250,301.045746 577.986267,291.612793 
	C566.201477,276.904510 552.496582,263.931305 539.086670,250.718414 
	C538.137817,249.783539 537.114868,248.911072 536.260132,247.896851 
	C535.226196,246.669922 534.681213,245.259155 535.987366,243.869034 
	C537.251465,242.523697 538.781372,242.726227 540.042969,243.737564 
	C542.116150,245.399582 544.138672,247.154266 545.994507,249.053574 
	C578.480225,282.300354 610.981750,315.532135 643.335327,348.907135 
	C646.747803,352.427307 650.232605,353.822693 655.129456,353.807312 
	C700.286499,353.665466 745.444397,353.715698 790.601807,353.822266 
	C801.444946,353.847839 809.787231,349.808197 814.431702,339.766571 
	C818.808289,330.304291 816.354309,319.421539 808.393738,311.308350 
	C804.178284,307.012054 799.324402,303.468994 794.464172,299.949768 
	C787.860840,295.168365 785.751648,295.621063 781.875244,302.845642 
	C781.023682,304.432617 780.564697,306.244202 780.029968,307.984619 
	C778.347351,313.461548 781.208984,318.428528 781.882202,323.641632 
	C782.144348,325.671906 782.820129,328.003174 780.340393,328.771057 
	C777.400085,329.681488 776.852966,326.971283 776.124390,324.987671 
	C775.551819,323.428833 775.190918,321.792328 774.733521,320.191071 
	C769.290283,301.136841 764.522766,281.856903 758.250488,263.079651 
	C747.851990,231.950165 735.473511,201.551086 721.361572,171.068634 
M206.951889,299.451965 
	C204.444855,302.119904 201.811310,304.680939 199.451691,307.473450 
	C186.097900,323.276978 193.497559,347.211487 213.199173,352.089996 
	C227.340164,355.591583 234.379822,351.358917 237.805603,337.190796 
	C239.598007,329.777832 239.130005,322.331848 237.755173,314.916473 
	C235.492737,302.713715 232.261551,290.752106 228.965195,277.804626 
	C220.687714,284.607635 214.666351,292.410400 206.951889,299.451965 
z"/>
<path fill="#000000" opacity="1.000000" stroke="none" 
	d="
M891.974182,547.076050 
	C881.617126,537.178650 878.717896,524.287537 883.788635,511.731384 
	C888.391602,500.333527 900.323486,492.244904 912.693359,492.137085 
	C925.063354,492.029266 937.028503,500.229919 941.799316,512.085510 
	C946.776489,524.453979 943.709961,537.854492 933.764893,547.195312 
	C924.823242,555.593689 911.373291,557.566162 899.884888,551.993042 
	C897.212463,550.696594 894.794678,548.875122 891.974182,547.076050 
M920.126343,547.831543 
	C933.907227,542.747192 940.780579,530.002014 937.042114,516.464844 
	C933.714661,504.416260 920.571106,496.318024 908.304810,498.758911 
	C893.982300,501.608948 885.237061,514.985107 888.250977,529.431885 
	C891.095947,543.068970 904.654053,551.184875 920.126343,547.831543 
z"/>
<path fill="#000000" opacity="1.000000" stroke="none" 
	d="
M288.104553,292.396667 
	C296.196289,290.024628 301.395599,284.953064 304.782043,277.829163 
	C307.233337,272.672394 308.651520,267.213684 309.630646,261.615051 
	C310.172516,258.516571 309.391266,256.227356 306.535187,254.443985 
	C301.982971,251.601517 297.978241,248.103912 295.401947,243.221573 
	C291.883240,236.553345 293.435059,230.518661 300.177277,227.272400 
	C309.847931,222.616150 319.875732,222.286469 329.575897,227.084717 
	C339.021271,231.756958 340.047180,241.686981 332.149536,248.682526 
	C328.860657,251.595749 325.015961,253.779114 320.909698,255.033737 
	C316.477661,256.387848 315.953003,259.150879 316.308838,263.026611 
	C318.812958,290.300201 344.116943,302.413818 366.992371,287.215881 
	C373.481903,282.904358 378.634430,277.302399 382.507599,270.538239 
	C383.251923,269.238312 383.893799,267.879944 384.627625,266.573669 
	C385.738831,264.595642 386.595490,261.712494 389.668335,263.376556 
	C392.312134,264.808228 390.978607,267.189697 389.994995,269.079163 
	C386.118042,276.526550 381.244598,283.197906 374.785706,288.681549 
	C364.114136,297.741730 351.636993,300.615143 337.995270,299.852356 
	C320.191193,298.856903 302.364990,299.234558 284.547180,299.104340 
	C283.382904,299.095825 282.199371,299.238159 281.058807,299.074097 
	C279.481934,298.847290 278.141388,298.055206 277.996155,296.294220 
	C277.841003,294.413269 279.225311,293.620483 280.780487,293.353394 
	C283.072418,292.959778 285.401459,292.782471 288.104553,292.396667 
z"/>
<path fill="#000000" opacity="1.000000" stroke="none" 
	d="
M361.452515,165.239990 
	C365.939484,162.735718 370.378235,161.479645 375.165192,161.746552 
	C383.520599,162.212402 390.224731,168.575104 391.379425,176.823517 
	C391.768219,179.600952 390.961945,181.426498 388.291077,182.201889 
	C384.942596,183.173965 381.532837,183.933716 378.178192,184.886276 
	C372.465363,186.508438 371.384796,190.583160 375.570770,194.863113 
	C377.312195,196.643616 379.315247,198.165237 381.119141,199.888504 
	C383.157623,201.835938 383.252625,203.680923 381.090118,205.836304 
	C376.473877,210.437363 371.147217,213.684479 364.727356,214.846725 
	C353.424347,216.892975 342.695953,205.443329 344.236633,193.037064 
	C345.694000,181.301407 351.223602,172.021240 361.452515,165.239990 
z"/>
<path fill="#000000" opacity="1.000000" stroke="none" 
	d="
M314.186584,201.677429 
	C314.337677,202.644699 314.580322,203.416885 314.318420,203.932999 
	C310.582672,211.295151 296.148773,216.729523 288.022369,213.891220 
	C279.886353,211.049561 274.839539,201.369949 276.352417,191.930084 
	C278.353271,179.445343 284.491486,169.765976 295.840912,164.028244 
	C307.270477,158.250015 318.962677,163.058411 322.452148,174.476578 
	C324.055817,179.723907 323.285522,181.298889 317.960083,182.921616 
	C315.423004,183.694717 312.748047,184.006699 310.191742,184.726974 
	C304.352722,186.372208 303.267517,190.799408 307.598877,195.131775 
	C309.711304,197.244720 311.893127,199.288300 314.186584,201.677429 
z"/>
<path fill="#000000" opacity="1.000000" stroke="none" 
	d="
M353.625977,138.393173 
	C357.236481,137.761734 359.627167,139.778046 361.988495,141.471420 
	C363.787384,142.761444 363.844940,144.946793 361.729309,145.937500 
	C358.707153,147.352692 356.372437,144.937820 354.016388,143.555588 
	C351.962097,142.350372 351.485901,140.539597 353.625977,138.393173 
z"/>
<path fill="#000000" opacity="1.000000" stroke="none" 
	d="
M329.386414,139.796539 
	C329.160950,143.436661 323.552338,147.404129 320.892365,146.125122 
	C319.159760,145.292053 318.298126,143.350525 319.770294,142.129654 
	C322.380981,139.964554 325.090759,136.865067 329.386414,139.796539 
z"/>
<path fill="#000000" opacity="1.000000" stroke="none" 
	d="
M898.738037,532.895447 
	C898.759216,525.578735 898.843201,518.744934 898.774170,511.912659 
	C898.740723,508.602722 900.096375,506.891510 903.486145,506.972321 
	C907.805298,507.075317 912.151184,506.502838 916.434204,507.512604 
	C920.640869,508.504395 923.817749,510.789703 924.878479,515.106079 
	C925.938293,519.418762 923.683289,522.445679 920.333130,524.845642 
	C919.807800,525.221924 919.352295,525.695740 918.708130,526.261902 
	C920.467773,531.315857 925.008118,534.798889 926.539795,540.175354 
	C922.710571,541.889099 920.046997,541.332458 918.150818,537.602722 
	C916.795471,534.936584 915.222839,532.363281 913.550354,529.881165 
	C911.998291,527.578003 909.582214,526.674805 906.966492,527.466553 
	C904.340149,528.261475 905.402405,530.789246 905.195801,532.635071 
	C905.029785,534.118103 905.164246,535.632446 905.106201,537.130554 
	C905.027893,539.151306 904.380127,540.806152 902.001160,540.865662 
	C899.281067,540.933777 898.713867,539.128784 898.743896,536.878784 
	C898.759460,535.712402 898.740967,534.545654 898.738037,532.895447 
M911.372437,512.934875 
	C908.784668,513.255554 905.425842,512.026733 905.060425,516.502930 
	C904.683228,521.123779 906.047119,522.283691 911.964905,521.773132 
	C915.043457,521.507629 918.416504,520.905701 918.438782,517.070496 
	C918.460571,513.316833 915.160522,513.082520 911.372437,512.934875 
z"/>
</svg>