<svg version="1.1" id="Layer_1" xmlns="http://www.w3.org/2000/svg" xmlns:xlink="http://www.w3.org/1999/xlink" x="0px" y="0px"
	 width="100%" viewBox="0 0 1024 576" enable-background="new 0 0 1024 576" xml:space="preserve">
<path fill="#000000" opacity="1.000000" stroke="none" 
	d="
M115.537849,276.400574 
	C119.469421,274.037598 123.466835,272.723785 127.497841,271.822693 
	C131.321548,270.967926 133.124115,268.772278 132.876404,265.222961 
	C132.567657,260.799255 134.094193,256.632324 134.239288,252.212784 
	C134.434326,246.272232 135.387985,239.961746 137.165283,234.130661 
	C138.380066,230.145081 138.076385,226.300278 138.373413,222.364395 
	C139.641876,205.556702 143.561615,190.046997 160.324692,181.594238 
	C174.284348,174.555084 192.100601,182.838455 197.789688,194.655029 
	C199.513885,198.236267 201.364029,200.238861 205.614136,199.958405 
	C210.234863,199.653488 212.052292,202.635193 212.217194,206.916580 
	C212.306366,209.232025 211.911560,211.547302 212.583115,213.865616 
	C214.301941,219.799225 218.219650,223.015228 224.295685,223.707367 
	C228.226166,224.155075 231.653442,225.800583 234.586365,228.358704 
	C235.668335,229.302414 236.785141,230.775650 235.643784,232.309402 
	C234.548157,233.781693 232.931900,233.377090 231.585617,232.545425 
	C228.543503,230.666138 225.182739,229.886169 220.864365,229.176468 
	C222.799377,237.023224 233.601151,235.567520 234.859131,243.381134 
	C230.156219,245.098999 227.777634,239.917831 223.749435,240.076096 
	C223.493149,249.655243 218.512924,259.167053 223.695129,268.731110 
	C229.277649,268.427338 234.304581,263.648041 234.731445,258.159515 
	C234.847504,256.667328 234.773560,255.161224 234.817017,253.662384 
	C234.921051,250.073090 236.783859,247.610031 240.081482,246.537598 
	C243.655762,245.375198 246.178192,247.279358 248.046509,250.154144 
	C248.947220,251.540100 249.659775,253.048294 250.610687,254.780029 
	C252.828354,254.562332 254.648361,252.898193 256.989319,252.686951 
	C268.528870,251.645676 278.291473,262.493103 275.942993,274.397064 
	C274.823547,280.071320 272.995422,285.579895 269.631500,290.565155 
	C265.234711,297.081116 258.224640,300.021606 252.221405,304.346802 
	C250.889175,305.306671 249.352798,305.983215 247.730911,306.890625 
	C252.539917,319.401947 252.050980,332.060242 249.191589,344.733948 
	C247.733917,351.194733 249.868774,356.720825 252.594849,362.392548 
	C256.718109,361.292755 260.489685,359.929840 264.378082,359.349487 
	C268.310608,358.762543 272.579651,358.539734 275.283447,362.429749 
	C278.090393,366.468231 276.649506,370.514832 275.247772,374.776215 
	C272.252655,383.881561 266.297913,390.834869 260.069244,397.761139 
	C256.150208,402.119110 251.558456,405.267731 246.062897,406.909454 
	C242.669571,407.923157 239.364502,407.345490 236.114883,405.214294 
	C228.503906,400.222748 224.464386,392.122681 218.469788,385.744202 
	C216.677963,383.837646 214.990906,382.660339 212.423767,383.486237 
	C202.963135,386.529938 193.328690,387.598389 183.450958,386.224426 
	C182.829742,386.138000 182.163498,386.375214 181.244598,386.498657 
	C181.466721,389.618134 183.752365,391.558228 184.888275,394.007599 
	C189.245834,403.403931 185.519333,409.351807 175.353516,409.101685 
	C172.688995,409.036102 169.955643,408.712555 167.366562,409.159729 
	C155.401794,411.226257 146.129669,406.398254 137.747223,398.467041 
	C133.413498,394.366608 128.666061,390.719666 123.520561,387.554199 
	C116.088318,382.981964 113.821960,374.109222 117.861153,366.096954 
	C120.421959,361.017273 122.084381,356.006927 120.045166,350.304932 
	C119.425034,348.570953 119.984413,346.742096 120.784164,344.994659 
	C122.729973,340.743195 122.511665,336.815155 119.376137,332.953979 
	C116.863686,329.860107 114.878777,328.393951 110.651207,330.640076 
	C105.546211,333.352325 98.611450,330.266418 95.257538,324.794281 
	C87.335701,311.869324 90.937653,295.507355 104.303581,284.468842 
	C107.756592,281.617096 111.564949,279.195587 115.537849,276.400574 
M113.340706,322.977814 
	C116.161301,320.438293 118.167282,321.498932 119.578186,324.497986 
	C120.810501,327.117432 122.256218,329.443176 125.407990,330.415009 
	C128.398209,327.616791 128.205933,323.787842 128.742783,320.289764 
	C129.895767,312.776886 135.117310,307.666870 142.572220,307.049500 
	C144.054947,306.926697 145.872955,306.571899 146.098419,308.678558 
	C146.266495,310.249054 144.832428,311.011017 143.465576,311.171997 
	C136.077759,312.042023 133.613785,317.039856 132.913040,323.558197 
	C132.513458,327.275055 131.385223,330.853180 129.294876,333.839233 
	C126.950363,337.188324 126.126106,340.716461 126.154640,344.634918 
	C126.216591,353.145905 125.849510,361.471039 122.328506,369.574127 
	C119.748390,375.511993 121.555916,379.530853 127.116280,383.873047 
	C130.913864,386.838654 135.201950,389.233429 138.735794,392.467896 
	C146.817169,399.864746 155.209290,405.979584 167.074051,403.927917 
	C169.015656,403.592163 171.065231,403.891022 173.064789,403.878265 
	C180.403748,403.831390 182.060532,400.841370 178.360931,394.250824 
	C175.310028,388.815918 171.594727,383.986298 166.243439,380.537659 
	C164.803146,379.609497 162.469299,378.795258 162.902130,376.597412 
	C163.733856,372.373810 164.966934,368.224487 166.157227,364.079865 
	C166.433594,363.117523 167.335419,362.330566 168.475510,362.592804 
	C169.840942,362.906860 170.282791,364.084076 170.098190,365.313232 
	C169.703979,367.938232 169.239700,370.560547 168.628311,373.142365 
	C168.205139,374.929260 168.100998,376.586975 169.990448,377.421448 
	C172.709961,378.622528 175.483963,380.325256 178.324432,380.522614 
	C192.978455,381.540680 207.587845,382.247986 220.771133,373.514496 
	C232.494049,365.748413 241.240265,355.609161 244.408218,341.937134 
	C247.370728,329.151703 247.153625,316.118988 240.860275,303.979340 
	C236.898819,296.337830 232.295898,289.159882 224.311340,283.930359 
	C224.311340,287.685333 224.030746,290.820496 224.360886,293.889923 
	C225.654358,305.915924 223.801132,317.817230 223.141129,329.762177 
	C222.912262,333.904358 220.697113,336.897034 216.348358,336.910797 
	C212.102600,336.924255 211.347153,333.647369 210.788132,330.009308 
	C208.341599,314.087463 208.567963,297.779205 203.899139,282.180756 
	C202.961395,279.047821 202.850937,275.535095 200.019028,273.057037 
	C198.851257,274.570953 199.044174,275.946777 199.053375,277.241180 
	C199.188339,296.216522 199.766220,315.189850 196.307587,334.022766 
	C195.556595,338.112000 193.973267,340.825104 190.070511,341.086121 
	C185.950027,341.361755 184.365707,338.034760 183.957565,334.509277 
	C183.058716,326.744965 181.985428,318.962036 181.781586,311.165863 
	C181.522522,301.258270 179.919510,291.511993 177.404266,282.110809 
	C175.082077,273.431213 174.672241,262.921295 163.652603,258.960632 
	C161.828766,259.460999 162.666931,263.374023 158.877747,262.651184 
	C158.093750,256.450043 163.577255,250.265488 159.910080,243.921661 
	C158.285034,244.208725 157.522247,245.384399 156.508026,246.217728 
	C155.154297,247.330048 154.602463,250.940048 152.252045,248.922913 
	C150.043106,247.027191 152.298523,244.710587 153.761795,242.920029 
	C154.497711,242.019547 155.257141,241.085968 156.177979,240.397461 
	C162.005234,236.040497 163.324936,229.177460 166.479080,222.330780 
	C160.182953,225.541077 158.101517,220.343628 155.142838,217.499313 
	C152.316605,218.640732 150.902786,220.720459 149.456573,222.738678 
	C148.738953,223.740189 147.984421,224.726395 146.641922,224.246063 
	C145.172653,223.720398 144.821503,222.327728 144.931061,220.952179 
	C145.293518,216.400864 148.259735,213.856583 152.106689,212.163254 
	C154.231018,211.228180 156.630722,210.847275 158.640472,209.735870 
	C166.989578,205.118637 176.010544,203.397415 185.402191,202.817535 
	C188.392700,202.632904 192.693573,204.762009 194.110519,201.288086 
	C195.704727,197.379578 191.009857,195.214569 189.178879,192.220169 
	C189.013672,191.949997 188.678009,191.786728 188.430481,191.563843 
	C174.215759,178.764130 152.519852,185.768738 146.578415,205.275482 
	C144.779068,211.183044 144.301987,217.313660 143.621521,223.442917 
	C142.063416,237.477692 140.105850,251.472610 138.043594,265.444305 
	C137.412460,269.720306 138.701630,271.316589 142.934586,270.953918 
	C145.082840,270.769836 147.272095,270.852295 149.428085,271.012482 
	C154.651047,271.400513 159.415436,273.396240 164.049316,275.632965 
	C165.651047,276.406097 167.542404,277.854858 166.601517,279.908417 
	C165.414124,282.499969 163.526047,280.510162 161.944290,279.967682 
	C157.421402,278.416473 153.494827,275.548187 148.416092,275.127258 
	C132.743286,273.828400 119.094917,278.551178 107.469734,288.757263 
	C100.010948,295.305511 94.507805,303.232239 96.312042,314.043304 
	C97.171738,319.194641 99.773254,323.522125 104.337006,326.095428 
	C107.680428,327.980652 110.277023,325.308014 113.340706,322.977814 
M176.518707,242.573502 
	C175.503662,245.520828 173.151306,247.359329 170.875732,249.212540 
	C166.052277,253.140747 166.329437,255.779984 171.980713,258.796539 
	C179.265167,262.684845 192.065826,259.855774 198.035919,253.211136 
	C201.046906,249.859940 203.184128,246.306976 202.712845,241.599350 
	C202.540558,239.878448 201.666214,237.418488 204.421402,237.278610 
	C206.964020,237.149551 207.384064,239.510895 207.474380,241.598328 
	C207.650177,245.660873 206.005066,249.353424 204.868896,253.111649 
	C210.821960,255.622269 217.058578,252.854187 217.718857,247.380737 
	C218.891525,237.659698 216.413162,228.931213 209.908798,221.533188 
	C208.341110,219.750107 206.563889,217.835602 203.742996,218.153580 
	C201.912613,225.766617 200.413177,226.518173 195.124191,222.671783 
	C194.720673,222.378342 194.340851,222.052216 193.935593,221.761353 
	C184.452133,214.955032 171.398972,219.697601 168.357361,231.102859 
	C170.294266,231.924789 173.685104,229.516815 174.230942,232.873978 
	C174.692566,235.713242 171.361160,235.457962 169.568100,236.357407 
	C164.941711,238.678085 164.758316,242.466278 165.838699,247.278320 
	C167.704453,245.749649 169.150650,244.471390 170.694794,243.325073 
	C172.329117,242.111832 173.785370,239.906662 176.518707,242.573502 
M246.721664,259.801849 
	C245.591415,258.499023 245.184601,256.099915 242.803864,256.602234 
	C241.004913,256.981812 240.432480,258.732269 239.834702,260.323822 
	C237.586517,266.309601 233.977371,270.950714 227.855072,273.596222 
	C223.697464,275.392761 223.669189,277.071869 227.065063,280.125671 
	C233.001770,285.464417 238.739304,290.971893 242.719986,298.023773 
	C244.288589,300.802643 246.424591,301.485901 249.409714,300.070831 
	C257.169952,296.392273 263.270447,290.751038 267.430389,283.429565 
	C270.679626,277.710968 271.956726,271.418884 268.882263,264.812103 
	C265.074646,256.629883 259.156799,255.136322 252.531815,261.174042 
	C250.255463,263.248627 248.526184,263.321594 246.721664,259.801849 
M260.940796,373.645599 
	C262.119019,373.305847 263.297638,373.147339 264.015259,374.423157 
	C264.716827,375.670502 264.056061,376.723083 263.176849,377.525757 
	C262.328735,378.300140 261.310547,378.893616 260.344818,379.532928 
	C253.084366,384.339203 246.528763,389.896393 241.522980,397.116760 
	C240.658844,398.363220 239.613876,399.650574 240.642273,401.184204 
	C241.799850,402.910522 243.414688,402.462280 245.104401,401.888489 
	C248.121735,400.863892 250.781494,399.484406 253.215454,397.266449 
	C260.352966,390.762177 265.382111,382.863403 269.388092,374.216919 
	C270.462952,371.896912 272.760162,369.511475 270.707458,366.890656 
	C268.811829,364.470367 265.853363,365.209930 263.234589,365.644226 
	C257.464813,366.601044 251.867844,367.976074 247.357346,372.116089 
	C246.134827,373.238190 244.541931,374.219055 242.909668,372.743805 
	C241.558121,371.522278 242.198257,370.035950 243.356186,369.353363 
	C250.041153,365.412628 245.821335,361.144562 243.835495,355.715820 
	C238.142700,366.167755 229.972168,373.039368 220.916641,379.444733 
	C225.540588,386.158844 229.536026,392.480255 235.732574,397.543823 
	C242.106033,387.108032 250.748566,380.013947 260.940796,373.645599 
M219.607941,289.371948 
	C219.607941,298.117584 219.607941,306.863220 219.607941,315.608826 
	C219.651566,315.609131 219.695190,315.609406 219.738815,315.609680 
	C219.738815,307.011658 219.738815,298.413666 219.607941,289.371948 
z"/>
<path fill="#000000" opacity="1.000000" stroke="none" 
	d="
M378.112427,282.153625 
	C378.608002,277.552979 378.843689,273.389954 378.390259,269.233368 
	C378.157745,267.102081 378.006744,264.593445 374.845581,264.852020 
	C371.950623,265.088806 372.241882,267.414307 372.232697,269.388062 
	C372.185425,279.553833 372.121918,289.720062 372.180908,299.885468 
	C372.201385,303.411011 371.784393,306.249542 367.255676,306.203156 
	C364.571381,306.175629 364.658539,308.343933 364.648865,310.167694 
	C364.606506,318.150238 364.562622,326.133911 364.655640,334.115540 
	C364.694244,337.428558 364.421387,340.160797 360.091278,340.140442 
	C357.347351,340.127563 357.130951,342.152893 357.000122,344.318085 
	C356.291718,356.043091 356.265076,356.043793 344.634583,356.040039 
	C340.634857,356.038727 336.629028,355.880707 332.637085,356.052429 
	C328.417053,356.233948 326.601105,354.613281 326.718994,350.219910 
	C326.933441,342.226532 326.670563,334.221375 326.791412,326.223907 
	C326.839447,323.046387 326.196320,321.048798 322.436249,321.305603 
	C318.869141,321.549225 317.905975,319.203278 317.891571,316.155182 
	C317.856934,308.822571 317.759399,301.489502 317.810699,294.157532 
	C317.831818,291.141113 317.370270,288.892334 313.591248,288.921936 
	C310.617340,288.945221 309.668640,287.046112 309.706696,284.280151 
	C309.777771,279.115021 309.614197,273.945801 309.729919,268.782379 
	C309.796356,265.817657 309.111389,263.843170 305.636078,264.104614 
	C301.644226,264.404907 300.487305,262.352661 300.609436,258.609375 
	C300.826660,251.950317 300.788086,245.277618 300.654266,238.614670 
	C300.585236,235.178604 301.991730,233.761826 305.385773,233.863510 
	C309.381714,233.983231 313.387878,233.993805 317.382660,233.853973 
	C321.087555,233.724274 322.408081,235.420807 322.294556,238.996277 
	C322.135925,243.990479 322.411377,248.998795 322.241058,253.992188 
	C322.128021,257.306091 323.099121,259.096588 326.727295,258.753723 
	C330.281403,258.417877 331.369751,260.434357 331.323669,263.655701 
	C331.247467,268.987396 331.388428,274.322388 331.302399,279.653778 
	C331.260559,282.245697 331.998383,283.843506 334.906036,283.796204 
	C338.486145,283.737946 339.301361,285.946747 339.285187,289.048370 
	C339.229614,299.713928 339.233307,310.380432 339.327911,321.045563 
	C339.343750,322.826813 338.492432,325.684387 341.629761,325.576691 
	C344.597900,325.474731 343.803711,322.695801 343.846954,320.868134 
	C343.969147,315.704468 343.958618,310.536072 343.905701,305.370483 
	C343.872192,302.099945 344.752808,299.786896 348.601715,299.834808 
	C351.793976,299.874573 351.759583,297.582275 351.765808,295.317078 
	C351.792908,285.484772 351.888489,275.652313 351.854156,265.820312 
	C351.841400,262.169312 352.024963,259.080475 357.042755,259.413940 
	C359.638458,259.586487 359.640533,257.335419 359.652466,255.461685 
	C359.688538,249.795654 359.799377,244.127045 359.672394,238.464142 
	C359.595154,235.018036 361.056000,233.678391 364.437531,233.730301 
	C371.602020,233.840286 378.772919,233.900848 385.934082,233.711975 
	C390.022888,233.604141 391.150024,235.635010 391.087463,239.236023 
	C390.994843,244.567001 391.034607,249.900818 391.066315,255.233154 
	C391.079773,257.498383 391.263397,259.768860 394.409637,259.665100 
	C398.000641,259.546692 398.348694,261.849915 398.341705,264.614380 
	C398.316803,274.446960 398.430206,284.280518 398.323730,294.111908 
	C398.286896,297.511749 398.660614,300.041779 402.975250,299.996918 
	C405.872314,299.966736 406.305084,302.166534 406.289612,304.557129 
	C406.255096,309.889801 406.223572,315.224243 406.332428,320.555084 
	C406.367035,322.249207 405.644073,324.306732 407.833374,325.482605 
	C410.526489,324.897278 409.695862,322.666229 409.709686,321.061127 
	C409.797363,310.896057 409.860352,300.728516 409.717255,290.564789 
	C409.658875,286.418243 410.656128,283.691162 415.461609,283.897552 
	C418.125977,284.011902 418.795593,282.314331 418.779846,279.990479 
	C418.743744,274.657867 418.865753,269.323303 418.768463,263.992340 
	C418.707977,260.678711 419.484589,258.416534 423.437469,258.645325 
	C426.433044,258.818726 426.942841,256.829834 426.925171,254.377609 
	C426.889160,249.378784 427.044678,244.376617 426.917328,239.381042 
	C426.816925,235.444077 428.247772,233.460281 432.455109,233.714325 
	C435.941956,233.924881 439.452179,233.785294 442.951355,233.742874 
	C445.851685,233.707703 447.247803,235.072433 447.243744,237.980042 
	C447.233459,245.312653 447.238129,252.645477 447.288330,259.977875 
	C447.302795,262.091888 446.566589,263.643188 444.361694,263.916351 
	C441.131592,264.316528 441.006714,266.528137 441.006287,269.011719 
	C441.005432,274.010101 440.928223,279.008728 440.855377,284.006836 
	C440.808777,287.203308 439.324921,289.079224 435.956543,288.847107 
	C431.422760,288.534729 430.254303,290.925293 430.356689,294.988464 
	C430.537140,302.150269 430.382874,309.319885 430.438446,316.485718 
	C430.459686,319.224976 430.224365,321.513794 426.583160,321.460205 
	C423.541107,321.415466 423.305176,323.616211 423.313293,325.966156 
	C423.342010,334.298767 423.196136,342.634521 423.386566,350.962891 
	C423.470215,354.620819 422.136963,356.106842 418.487610,356.040283 
	C411.823883,355.918762 405.156006,355.999908 398.490051,356.034424 
	C395.201904,356.051483 393.511169,354.620850 393.710999,351.190582 
	C393.807739,349.529694 393.656738,347.854950 393.740265,346.192627 
	C393.910675,342.801727 393.891632,339.932159 389.103729,339.808899 
	C386.018555,339.729492 385.879547,336.786530 386.090302,334.427948 
	C386.789703,326.600281 385.824341,318.787079 386.054718,310.969940 
	C386.139679,308.088165 385.469086,306.093231 382.020691,306.065979 
	C379.130310,306.043121 378.658112,304.008209 378.616241,301.578979 
	C378.507202,295.253510 378.275146,288.930145 378.112427,282.153625 
M401.051270,303.423218 
	C396.806488,303.408264 395.467743,301.307404 395.512817,297.100098 
	C395.616180,287.449036 395.136383,277.793152 395.048370,268.137817 
	C395.020752,265.108582 394.424896,262.918793 390.929779,262.520721 
	C388.079529,262.196106 387.746643,260.039276 387.752930,257.716003 
	C387.767365,252.384521 387.632416,247.048798 387.807312,241.722977 
	C387.921814,238.235748 386.473419,236.950714 383.080994,237.057388 
	C378.254028,237.209167 373.418182,237.049759 368.587189,237.109863 
	C363.236938,237.176407 362.437469,238.183426 362.623291,243.732849 
	C362.784790,248.554901 362.843811,253.383270 362.807068,258.207764 
	C362.791290,260.276611 362.351501,262.309509 359.602234,262.391876 
	C355.754425,262.507233 355.164520,264.880798 355.198669,268.141663 
	C355.305054,278.303711 355.203918,288.467773 355.207123,298.631073 
	C355.207947,301.173096 354.889313,303.483307 351.567596,303.317169 
	C347.852264,303.131378 347.141968,305.208252 347.226837,308.357269 
	C347.361389,313.351898 347.120911,318.357849 347.298859,323.349731 
	C347.440155,327.314148 346.566711,329.509949 341.831940,329.484589 
	C337.177582,329.459656 335.723022,327.771149 335.825043,323.284943 
	C336.059845,312.960236 335.939301,302.626831 335.902740,292.297150 
	C335.894714,290.023560 336.283356,287.369812 332.712311,287.237091 
	C328.915527,287.095947 328.175201,284.643188 328.240509,281.415833 
	C328.337952,276.603302 328.275818,271.787262 328.262299,266.972778 
	C328.253662,263.901733 327.251038,261.810028 323.628052,262.016022 
	C319.822723,262.232391 318.788025,259.944061 318.901855,256.594208 
	C319.009308,253.431824 319.034790,250.261475 318.948944,247.098648 
	C318.648285,236.023300 320.435425,237.450714 308.487000,237.150818 
	C304.889954,237.060532 303.746185,238.728455 303.802917,241.936462 
	C303.888245,246.763168 303.989105,251.590866 303.968628,256.417664 
	C303.956757,259.217896 304.874115,260.921204 307.991150,260.744690 
	C312.034332,260.515717 313.138092,262.914246 313.109283,266.432983 
	C313.066956,271.597260 313.143829,276.762360 313.131012,281.927002 
	C313.125305,284.235016 313.832062,285.886902 316.485168,285.846954 
	C320.302948,285.789490 321.231506,288.053497 321.207092,291.359558 
	C321.152954,298.689941 321.301849,306.022369 321.196655,313.351501 
	C321.153320,316.370392 322.003204,318.136353 325.350159,318.093475 
	C328.994659,318.046783 330.209381,320.152405 330.141296,323.572418 
	C330.025238,329.401428 330.125336,335.234528 330.104980,341.065796 
	C330.064331,352.695770 330.056061,352.695740 341.705566,352.733887 
	C353.131714,352.771301 353.171295,352.773041 353.672485,341.396423 
	C353.787415,338.788513 354.213623,336.572723 357.420715,336.737274 
	C361.302521,336.936432 361.662140,334.572906 361.643494,331.606110 
	C361.593262,323.609222 361.651855,315.611664 361.630096,307.614471 
	C361.623749,305.278168 361.855530,303.050781 364.851349,303.023682 
	C368.748749,302.988373 368.867371,300.505280 368.851013,297.611298 
	C368.794495,287.614990 368.997223,277.614258 368.760986,267.623230 
	C368.649994,262.930573 370.284637,261.003143 375.079346,261.064758 
	C379.622131,261.123169 381.635010,262.465393 381.463318,267.445374 
	C381.113342,277.596069 381.356537,287.767120 381.352142,297.929810 
	C381.351135,300.304962 381.105621,302.957306 384.621460,302.849915 
	C388.897217,302.719330 389.415070,305.251678 389.357941,308.676971 
	C389.241272,315.672638 389.321259,322.671875 389.348816,329.669495 
	C389.362732,333.204773 389.801636,336.417297 394.371887,336.881348 
	C396.422943,337.089600 396.972656,338.759827 397.040741,340.541138 
	C397.136139,343.037476 397.238617,345.540802 397.154419,348.034943 
	C397.040070,351.424316 398.492859,352.875061 401.932709,352.738068 
	C406.091400,352.572418 410.277954,352.469330 414.422607,352.761719 
	C418.833649,353.072937 420.267548,351.336792 420.168396,347.000488 
	C419.985931,339.022491 420.268555,331.032898 420.411621,323.049072 
	C420.453094,320.734100 420.962860,318.603088 423.964752,318.687775 
	C427.252441,318.780548 427.707977,316.775269 427.686462,314.122742 
	C427.625610,306.625732 427.858948,299.121399 427.602325,291.632812 
	C427.456207,287.367737 428.808960,285.288086 433.257904,285.814484 
	C436.849152,286.239441 437.879303,284.404083 437.761566,281.075012 
	C437.584991,276.083099 437.709229,271.079987 437.733856,266.081787 
	C437.742889,264.248566 437.552185,261.819946 439.718811,261.443085 
	C444.568329,260.599579 443.934998,257.175751 443.924286,253.875519 
	C443.911865,250.043518 443.771027,246.202621 443.981110,242.381821 
	C444.190643,238.571655 442.815918,236.703079 438.839874,237.085083 
	C437.519073,237.211960 436.168396,237.200516 434.844696,237.091324 
	C431.353760,236.803329 430.119598,238.400711 430.233368,241.811310 
	C430.405426,246.970016 430.201019,252.140121 430.259521,257.304199 
	C430.291229,260.104248 429.195923,261.883606 426.279022,261.893066 
	C422.529694,261.905273 422.029968,264.151337 422.088776,267.177338 
	C422.185791,272.173523 422.111176,277.173431 422.076843,282.171570 
	C422.057953,284.920227 421.392883,287.418732 417.983582,287.155273 
	C413.243469,286.788940 413.019592,289.568665 413.062195,293.140381 
	C413.185364,303.468658 413.015747,313.800690 413.160583,324.128448 
	C413.214233,327.952942 411.822327,329.464661 407.909821,329.477264 
	C403.858154,329.490295 402.565521,327.649292 402.774658,323.981262 
	C402.878906,322.153717 402.972321,320.303497 402.809021,318.487030 
	C402.368713,313.590271 404.115570,308.542297 401.051270,303.423218 
z"/>
<path fill="#000000" opacity="1.000000" stroke="none" 
	d="
M906.756714,329.965790 
	C906.834961,326.617004 908.870728,326.016205 911.194580,325.930328 
	C916.119141,325.748322 914.868835,322.026276 914.833862,319.307831 
	C914.796936,316.441681 916.169922,312.454437 910.958801,312.325531 
	C909.401489,312.286987 907.541626,312.075470 907.341736,310.334961 
	C906.808228,305.688446 903.574036,306.143829 900.379028,306.152740 
	C890.547058,306.180145 880.713867,306.062408 870.883423,306.186096 
	C866.912659,306.236084 864.338379,305.278473 864.726501,300.641388 
	C864.945801,298.022034 863.388184,297.139526 860.988464,297.192444 
	C858.823303,297.240204 856.649902,297.076874 854.490845,297.197510 
	C850.311768,297.431122 846.736206,297.181305 846.758118,291.522339 
	C846.767883,289.006805 844.493469,289.042877 842.648560,288.968079 
	C839.747314,288.850525 838.612000,287.403046 838.639648,284.490112 
	C838.736267,274.325592 838.716675,264.159241 838.646423,253.994263 
	C838.626709,251.139236 839.589539,249.481995 842.669556,249.717239 
	C845.575806,249.939224 847.021240,248.660553 847.083618,245.719116 
	C847.146362,242.763412 848.841492,241.587494 851.656067,241.806396 
	C854.544250,242.031006 855.994507,240.827499 856.025757,237.819199 
	C856.059448,234.571335 858.093323,233.730286 861.034058,233.740768 
	C878.864929,233.804367 896.696289,233.824509 914.527039,233.743927 
	C917.885986,233.728745 919.560425,234.906235 919.310059,238.391449 
	C919.148193,240.644684 920.212097,241.843124 922.526001,241.817123 
	C925.490417,241.783813 927.343262,242.977097 927.305237,246.198853 
	C927.274536,248.792648 928.692505,249.823303 931.095337,249.641113 
	C934.463623,249.385727 935.430481,251.127716 935.346558,254.183060 
	C935.223083,258.679169 935.228271,263.183136 935.339783,267.679749 
	C935.412781,270.623474 934.159485,272.004517 931.233337,272.003326 
	C927.234131,272.001709 923.234741,272.039459 919.235840,272.093567 
	C916.396118,272.131989 914.757690,270.887726 914.888794,267.932739 
	C915.021606,264.936920 914.124695,263.105408 910.700073,263.316498 
	C907.976868,263.484314 906.664062,261.957855 906.823120,259.321594 
	C907.052917,255.512924 904.987671,254.380249 901.606628,254.393051 
	C892.274597,254.428406 882.941956,254.435684 873.610352,254.357452 
	C870.685608,254.332947 869.162476,255.468155 869.430908,258.486084 
	C869.761353,262.200958 868.008606,263.626129 864.418396,263.401489 
	C859.746338,263.109070 860.133667,266.505249 860.144165,269.536774 
	C860.155029,272.658142 859.436646,276.237030 864.527954,276.026855 
	C867.634399,275.898621 869.646118,277.070709 869.440918,280.684906 
	C869.256897,283.926270 871.690613,283.852478 873.914673,283.858185 
	C884.080139,283.884277 894.247070,284.001740 904.410400,283.861481 
	C908.866821,283.799957 912.056213,284.625183 911.604370,290.061371 
	C911.418335,292.299957 912.848694,292.880249 914.790894,292.859467 
	C917.123291,292.834534 919.457275,292.938263 921.789246,292.901154 
	C924.762512,292.853882 927.120422,293.460754 927.248230,297.119934 
	C927.325989,299.346619 928.930664,299.829620 930.746338,299.720703 
	C934.684265,299.484528 935.414673,301.739044 935.395752,305.070557 
	C935.341003,314.734222 935.421448,324.399445 935.540833,334.062897 
	C935.580933,337.302307 935.019531,339.702087 930.955322,339.383545 
	C928.449524,339.187225 927.241882,340.619690 927.362061,343.056854 
	C927.505005,345.956116 926.368286,347.534515 923.319702,347.280304 
	C919.931885,346.997833 918.956238,348.821167 919.079895,351.840698 
	C919.199768,354.768982 917.603333,356.042023 914.752930,356.043457 
	C896.755432,356.052582 878.757874,356.076996 860.760376,356.115540 
	C857.779724,356.121918 855.847229,354.908142 855.973206,351.737823 
	C856.116089,348.138031 854.325928,347.031433 851.063599,347.287689 
	C848.315430,347.503540 847.010132,345.941620 847.025391,343.386383 
	C847.043152,340.399506 845.700928,339.132263 842.773438,339.275269 
	C839.817749,339.419678 838.575317,337.903564 838.633118,334.995361 
	C838.722595,330.497589 838.760376,325.995575 838.668091,321.498505 
	C838.609192,318.628540 839.768005,317.042236 842.688171,317.001221 
	C847.019653,316.940399 851.352356,316.971832 855.684082,316.920410 
	C858.796387,316.883453 859.717407,318.950012 859.843323,321.461548 
	C859.992981,324.447510 861.039001,326.150848 864.334106,325.999023 
	C867.546875,325.850952 869.354004,327.351410 869.278320,330.767822 
	C869.223206,333.255096 870.854187,333.754822 872.927307,333.752991 
	C882.925842,333.744141 892.924438,333.745361 902.922852,333.783661 
	C905.281128,333.792694 906.829956,333.049377 906.756714,329.965790 
M923.212708,297.161713 
	C920.104736,295.355896 916.706238,296.373291 913.454651,296.290894 
	C910.318359,296.211395 908.056274,295.353394 908.138000,291.910278 
	C908.240234,287.606689 905.782837,287.180206 902.354675,287.223877 
	C892.359924,287.351257 882.361816,287.201324 872.366699,287.313324 
	C868.764343,287.353668 866.035156,286.873230 866.258118,282.314209 
	C866.338989,280.661652 865.396240,279.170746 863.534607,279.491516 
	C856.521606,280.699768 856.341675,276.407654 856.735352,271.428650 
	C856.892456,269.441742 856.895996,267.421326 856.734192,265.435333 
	C856.465454,262.136475 857.803162,260.324371 861.157166,260.252747 
	C864.313904,260.185333 866.195679,259.026886 866.025146,255.498840 
	C865.886963,252.640945 867.459778,251.180923 870.295166,251.177155 
	C882.122559,251.161392 893.949951,251.163635 905.777344,251.179535 
	C908.336914,251.182968 910.051697,252.415527 909.939453,255.065765 
	C909.774780,258.955872 911.084106,260.904633 915.303772,260.812256 
	C917.586487,260.762299 917.932739,262.985016 918.135620,264.869324 
	C918.313293,266.519501 918.274780,268.068970 920.532593,268.637177 
	C929.043640,270.779144 932.058533,268.549408 932.066956,259.842102 
	C932.067444,259.342316 932.033875,258.840057 932.071167,258.343109 
	C932.318054,255.053635 930.723572,253.998367 927.702820,252.444763 
	C923.401672,250.232559 921.698730,244.252838 916.347656,242.648148 
	C916.065857,242.563660 916.010376,241.410568 916.010315,240.754944 
	C916.010315,237.859512 914.298706,237.143127 911.772949,237.151245 
	C895.612549,237.203232 879.452026,237.217331 863.291504,237.222443 
	C860.962219,237.223175 859.303345,237.995529 859.374878,240.605362 
	C859.472229,244.158249 857.487000,245.272934 854.342651,245.226089 
	C852.084351,245.192413 850.305908,245.843521 850.376465,248.534271 
	C850.461487,251.779144 848.741943,253.015106 845.736084,252.975357 
	C843.202026,252.941864 841.541504,253.854660 841.592834,256.720245 
	C841.741943,265.040680 841.923584,273.361237 841.971558,281.682465 
	C841.988892,284.682190 843.307434,285.905609 846.235229,285.764160 
	C848.223328,285.668152 850.287903,286.234741 850.113953,288.589264 
	C849.719116,293.931274 852.950134,294.078064 856.783447,293.829285 
	C858.774353,293.700104 860.787231,293.908020 862.778076,293.777710 
	C866.083130,293.561340 867.967834,294.994415 867.905823,298.310913 
	C867.831299,302.299805 870.069275,302.829956 873.364502,302.791565 
	C883.192688,302.677063 893.056763,303.281464 902.842041,302.630951 
	C910.045044,302.152100 911.493408,310.845093 917.992615,310.917725 
	C918.189087,310.919891 918.495850,313.055237 918.520813,314.201111 
	C918.600403,317.858459 918.395081,321.529938 918.638123,325.173370 
	C918.841980,328.228638 917.678162,329.601349 914.689026,329.382812 
	C911.554626,329.153656 910.091858,330.539581 909.968262,333.679565 
	C909.874268,336.065277 908.449707,337.204346 906.028198,337.205963 
	C894.032776,337.213989 882.037292,337.236603 870.042053,337.302155 
	C867.406860,337.316559 865.795593,336.225372 865.912476,333.518158 
	C866.056519,330.181549 864.474731,329.053131 861.370483,329.269104 
	C858.394836,329.476135 856.369446,328.325775 856.714722,325.013733 
	C857.167603,320.668915 854.736084,319.950989 851.237549,320.199280 
	C849.579407,320.316925 847.902466,320.312439 846.241821,320.221619 
	C843.290710,320.060181 841.666626,321.358032 842.114441,324.323273 
	C842.695068,328.168365 839.697632,334.528290 844.316895,335.330383 
	C850.125488,336.339020 849.559021,340.613251 851.775452,343.479401 
	C852.139587,343.950287 853.350403,343.890472 854.164307,343.868134 
	C857.674622,343.772064 859.527222,345.274109 859.264160,348.936615 
	C859.064148,351.720734 860.383423,352.775848 863.128723,352.760773 
	C879.455383,352.671112 895.782593,352.644043 912.109619,352.661926 
	C914.625977,352.664673 916.004211,351.673553 915.702759,349.136932 
	C915.066833,343.785065 918.991028,344.314972 922.332947,343.320435 
	C925.626160,342.340332 922.613525,335.835205 927.950867,335.825439 
	C928.283386,335.824829 928.615906,335.760559 928.948120,335.763458 
	C931.056458,335.781952 931.840454,334.496857 932.104065,332.636169 
	C933.488281,322.867920 931.906006,313.191132 931.825500,303.347870 
	C927.579407,303.115509 923.541199,303.280975 923.212708,297.161713 
z"/>
<path fill="#000000" opacity="1.000000" stroke="none" 
	d="
M742.884521,330.841797 
	C742.934509,300.538330 742.966919,270.714844 743.041260,240.891418 
	C743.058655,233.907501 743.285217,233.752411 750.461426,233.734009 
	C763.364807,233.700912 763.407471,233.701096 763.352051,246.718918 
	C763.247925,271.199432 764.656067,295.679169 763.394714,320.159546 
	C763.227783,323.399841 763.336487,326.243744 767.832092,326.124481 
	C769.904663,326.069519 771.366577,327.304657 771.229370,329.573151 
	C771.026428,332.930603 772.713928,333.891083 775.778748,333.846863 
	C782.774719,333.745972 789.773743,333.782837 796.770569,333.855316 
	C799.333191,333.881866 800.924744,333.110443 801.009094,330.252625 
	C801.094238,327.368042 802.907043,325.939392 805.581360,326.111603 
	C810.377197,326.420410 810.839233,323.746735 810.822083,319.872772 
	C810.705566,293.548431 810.748230,267.223389 810.751404,240.898575 
	C810.752258,233.920349 810.857605,233.776871 817.624512,233.818222 
	C833.968628,233.918106 830.070801,231.957962 830.715881,248.417282 
	C831.628601,271.706360 830.960510,295.059113 830.876404,318.384308 
	C830.856628,323.868713 831.166077,329.350189 830.533142,334.852051 
	C830.184753,337.880096 829.364441,339.557373 826.092651,339.367950 
	C823.646545,339.226318 822.279602,340.414276 822.383484,342.926880 
	C822.518311,346.185791 820.861816,347.474792 817.796204,347.295197 
	C814.551392,347.105164 813.206116,348.724457 813.424561,351.831726 
	C813.667786,355.291077 811.566833,356.055786 808.704102,356.055389 
	C793.542725,356.053406 778.381348,356.055359 763.219971,356.088898 
	C760.184570,356.095612 758.432617,354.934875 758.703247,351.649139 
	C758.930298,348.891541 758.115906,347.222656 754.905334,347.203796 
	C750.300598,347.176819 751.691711,342.968231 750.273071,339.892334 
	C744.106384,340.701691 742.027588,337.234863 742.884521,330.841797 
M746.274780,298.499939 
	C746.276001,309.160461 746.290466,319.821045 746.270569,330.481537 
	C746.264465,333.739014 748.033508,334.848907 750.644226,336.867157 
	C754.686340,339.991974 759.415527,343.511383 761.565979,348.491455 
	C762.681274,351.074371 763.109680,352.806274 766.362122,352.770386 
	C779.519348,352.625366 792.679016,352.653320 805.837524,352.696411 
	C808.376770,352.704712 810.163391,352.083588 810.087891,349.176086 
	C809.979187,344.983917 812.252014,343.618591 816.076355,343.859314 
	C818.233887,343.995117 819.724854,343.097565 819.571655,340.720459 
	C819.345764,337.213745 821.119019,335.933289 824.358826,335.983093 
	C826.612366,336.017731 827.577393,334.950806 827.575562,332.590607 
	C827.552063,302.110291 827.596191,271.629944 827.612915,241.149582 
	C827.613647,239.810837 827.653259,238.180466 826.158691,237.721664 
	C822.764160,236.679611 819.088989,236.524231 815.842590,237.640778 
	C812.831970,238.676208 814.169312,241.991623 814.161804,244.306198 
	C814.075867,270.624054 814.059753,296.942383 814.132446,323.260284 
	C814.143677,327.328217 813.570129,330.282227 808.422302,329.471222 
	C805.849731,329.065918 804.221069,330.122498 804.241455,332.998077 
	C804.264832,336.293671 802.292297,337.221191 799.362671,337.210419 
	C790.701294,337.178558 782.038635,337.152863 773.378540,337.274567 
	C770.123291,337.320312 768.313721,336.073547 768.112305,332.763306 
	C767.983582,330.648041 767.128967,329.246124 764.771667,329.325287 
	C760.999023,329.451935 760.584473,327.069275 760.566101,324.066498 
	C760.463379,307.248383 760.230347,290.431030 760.122559,273.612946 
	C760.055359,263.127441 760.070740,252.640518 760.162537,242.155228 
	C760.226501,234.847549 754.769104,237.718674 751.204651,237.198318 
	C747.097839,236.598755 746.211609,238.838882 746.236755,242.531738 
	C746.361450,260.853699 746.283081,279.177063 746.274780,298.499939 
z"/>
<path fill="#000000" opacity="1.000000" stroke="none" 
	d="
M654.627808,355.980652 
	C650.499573,356.029358 646.821045,355.861298 643.172852,356.120392 
	C638.513855,356.451294 636.968872,354.266846 637.047913,349.906891 
	C637.174683,342.912842 636.996033,335.913818 637.002136,328.916931 
	C637.027649,299.595795 637.053589,270.274597 637.127930,240.953568 
	C637.145325,234.101501 637.432190,233.841949 644.101746,233.836395 
	C666.426208,233.817780 688.750732,233.874420 711.075073,233.822784 
	C715.046387,233.813599 718.637024,233.859970 718.340088,239.359177 
	C718.253418,240.963501 719.364746,241.706451 720.890869,241.844421 
	C721.388611,241.889420 721.892639,242.010284 722.383057,241.968948 
	C728.256836,241.473740 724.470520,249.134323 728.344299,249.409760 
	C733.047485,249.744171 734.216614,251.835205 734.156555,256.041992 
	C734.006775,266.535553 734.096741,277.032806 734.128845,287.528473 
	C734.138428,290.682648 733.557312,293.256500 729.594238,293.186920 
	C727.373596,293.147919 726.176392,294.178680 726.159119,296.476410 
	C726.136230,299.513123 724.323486,300.448547 721.585266,300.432983 
	C719.713379,300.422333 718.319580,301.128632 718.382507,303.346680 
	C718.440735,305.398224 719.858398,305.703033 721.469238,305.769714 
	C721.635620,305.776611 721.801880,305.788635 721.967896,305.802185 
	C723.133362,305.897217 725.179932,306.117737 725.038940,306.896393 
	C723.681946,314.389282 734.977356,312.473480 734.261414,320.188934 
	C733.357361,329.932678 733.927795,339.830475 734.159729,349.654785 
	C734.268188,354.247101 732.866516,356.279327 727.927856,356.175293 
	C711.541138,355.830109 713.966919,357.889587 713.765381,342.092316 
	C713.716492,338.260925 713.632629,334.426636 713.729614,330.597839 
	C713.799927,327.821045 713.066345,326.018799 709.863586,326.227203 
	C706.823730,326.424957 705.061218,325.058197 705.031128,321.927307 
	C705.003418,319.045227 703.422607,318.157104 700.842407,318.345551 
	C697.887512,318.561432 696.470825,317.174591 696.632141,314.226868 
	C696.805725,311.055054 695.003235,310.288239 692.237610,310.306732 
	C682.575134,310.371429 672.910400,310.443726 663.249939,310.294403 
	C659.659485,310.238892 659.208374,312.108643 659.223145,315.000763 
	C659.283752,326.828979 659.197693,338.657928 659.224548,350.486450 
	C659.231201,353.436432 658.801575,355.891785 654.627808,355.980652 
M721.738770,352.677460 
	C730.687317,352.761139 730.701782,352.761200 730.737549,343.880890 
	C730.765076,337.051758 730.617493,330.218811 730.807251,323.394745 
	C730.910767,319.672089 730.573364,317.000793 725.846924,316.721832 
	C721.419617,316.460602 724.994019,309.581055 720.218201,309.161133 
	C719.886414,309.131958 719.556702,309.071411 719.224548,309.056458 
	C715.721924,308.898895 715.038635,306.718384 714.849548,303.655548 
	C714.570496,299.133026 716.398682,297.679596 720.861938,297.335266 
	C724.624695,297.045044 721.234680,289.953217 726.504639,289.962494 
	C726.836121,289.963074 727.167786,289.875671 727.499268,289.876251 
	C730.178345,289.880920 730.804382,288.254303 730.796387,285.939941 
	C730.763000,276.279236 730.791748,266.618378 730.780640,256.957550 
	C730.778687,255.240997 730.678284,253.447220 728.464661,253.149734 
	C722.384644,252.332748 722.539001,243.294785 715.677124,243.439438 
	C715.488586,243.443405 715.090332,241.937088 715.093567,241.136246 
	C715.107361,237.695999 713.061218,237.129318 710.169434,237.136108 
	C688.682495,237.186600 667.195007,237.224060 645.708740,237.087357 
	C641.571228,237.061035 640.211426,238.586655 640.226257,242.664215 
	C640.353577,277.642822 640.375916,312.622070 640.278748,347.600739 
	C640.267944,351.485870 641.454163,353.214294 645.412537,352.765289 
	C646.727783,352.616089 648.097778,352.589172 649.403381,352.778198 
	C654.434204,353.506683 656.086853,351.499603 655.926331,346.400177 
	C655.575317,335.251312 655.890686,324.083069 655.772705,312.924438 
	C655.733582,309.228729 656.889160,307.678131 660.903992,307.479797 
	C671.895813,306.936829 682.881775,307.174072 693.869873,307.075378 
	C697.038818,307.046906 699.612488,307.569824 699.341919,311.622559 
	C699.139038,314.662964 700.679688,315.876404 703.594788,315.623627 
	C706.454834,315.375610 708.051270,316.652008 708.157471,319.556030 
	C708.239624,321.803528 709.319275,322.988342 711.573547,322.874390 
	C716.096191,322.645782 717.239807,325.192017 717.165771,329.159607 
	C717.047791,335.486603 717.191650,341.818054 717.153870,348.147186 
	C717.138306,350.751526 717.496948,352.898743 721.738770,352.677460 
z"/>
<path fill="#000000" opacity="1.000000" stroke="none" 
	d="
M448.682129,317.837036 
	C448.692627,313.028717 448.762665,308.697723 448.691559,304.369049 
	C448.647064,301.657745 449.368561,299.684143 452.507935,299.802277 
	C455.925934,299.930847 456.713135,298.050537 456.644196,295.074951 
	C456.540100,290.581360 456.802612,286.076935 456.626953,281.588165 
	C456.492279,278.146484 457.609528,275.971527 461.274323,276.110809 
	C465.047119,276.254211 465.667755,274.063049 465.654388,271.046570 
	C465.629303,265.384583 465.741425,259.721588 465.681274,254.060242 
	C465.651489,251.255905 466.560181,249.524628 469.659210,249.688217 
	C473.120087,249.870895 473.660156,247.792816 473.764771,244.902298 
	C474.167999,233.759796 474.231689,233.756683 485.616333,233.776581 
	C490.112854,233.784424 494.610748,233.902771 499.105286,233.820221 
	C502.422455,233.759323 504.096680,235.177200 504.075958,238.533203 
	C504.063629,240.531082 504.224609,242.538330 504.082184,244.525208 
	C503.842407,247.870972 504.609528,250.018494 508.625916,249.819519 
	C511.859344,249.659348 512.252563,252.081528 512.257019,254.607742 
	C512.267029,260.269958 512.361511,265.933350 512.270935,271.593872 
	C512.226196,274.392365 513.074768,276.056793 516.159363,276.083496 
	C519.326111,276.110870 520.441833,277.905090 520.359009,280.954071 
	C520.232422,285.613434 520.422363,290.280975 520.323975,294.941772 
	C520.262695,297.842102 520.871216,299.886444 524.361145,299.756470 
	C527.539551,299.638092 528.211670,301.724152 528.213806,304.354187 
	C528.218384,310.016418 528.310181,315.679352 528.244080,321.340576 
	C528.212891,324.009247 528.695801,326.007751 531.966370,325.885864 
	C535.185974,325.765869 536.344543,327.461334 536.306458,330.542023 
	C536.219971,337.535400 536.224731,344.531708 536.325989,351.524872 
	C536.371338,354.658234 535.132080,356.153687 531.921570,356.088287 
	C528.093323,356.010315 524.261169,356.060822 520.431824,356.123322 
	C517.099976,356.177673 515.592957,354.681946 515.669983,351.280090 
	C515.786804,346.120209 515.550598,340.950775 515.725952,335.794312 
	C515.840881,332.415680 514.671387,330.973938 511.156433,331.003052 
	C496.002686,331.128693 480.847229,331.151154 465.693207,331.069458 
	C462.144318,331.050323 461.054260,332.591431 461.160736,335.915009 
	C461.320648,340.905701 461.089142,345.908142 461.207336,350.901245 
	C461.291595,354.461182 459.843658,356.128510 456.207611,356.054321 
	C437.813507,355.679199 440.227234,358.659088 440.099915,340.934082 
	C440.079559,338.103455 440.129974,335.272034 440.171631,332.441345 
	C440.227264,328.661377 440.808777,325.876984 445.838989,325.573425 
	C450.422394,325.296844 448.046783,320.911255 448.682129,317.837036 
M517.615173,293.433441 
	C517.601318,290.100555 517.514221,286.765869 517.596863,283.435394 
	C517.662292,280.800568 516.752747,279.220612 513.889709,279.400909 
	C510.040649,279.643280 509.007812,277.384460 509.017853,274.084961 
	C509.034546,268.585938 509.011322,263.086761 508.996063,257.587646 
	C508.989685,255.292984 508.782501,253.029221 505.711945,253.058960 
	C501.231262,253.102341 500.567535,250.359268 500.785126,246.760635 
	C500.895538,244.934692 500.704926,243.090958 500.806763,241.263992 
	C500.975403,238.238281 499.558960,237.058594 496.623413,237.147507 
	C493.293976,237.248352 489.958679,237.164825 486.625977,237.149368 
	C476.515198,237.102463 476.854767,236.239944 477.031525,246.397537 
	C477.092621,249.907272 476.486481,252.644714 472.081726,252.849457 
	C469.157318,252.985413 469.026245,255.382782 468.981659,257.655548 
	C468.870605,263.316803 468.679535,268.976807 468.609985,274.638428 
	C468.569763,277.911469 467.215942,279.612549 463.766632,279.356323 
	C460.531891,279.116028 459.323425,280.816315 459.376007,283.917450 
	C459.457916,288.748322 459.301819,293.583069 459.372711,298.414307 
	C459.409607,300.929321 458.665680,302.824646 455.923676,302.916199 
	C452.191467,303.040833 451.634521,305.538452 451.595337,308.350189 
	C451.516449,314.007874 451.570709,319.668060 451.626465,325.326630 
	C451.646698,327.379761 451.218201,329.316833 448.792999,329.105103 
	C443.131714,328.610840 443.084198,332.122040 443.307495,336.112640 
	C443.437683,338.438446 443.337128,340.777344 443.335236,343.110352 
	C443.326630,353.559937 443.320343,353.476593 453.933899,352.759033 
	C456.688049,352.572815 457.818207,351.549927 457.788055,348.823700 
	C457.729004,343.492432 457.962799,338.154572 457.786469,332.829010 
	C457.666443,329.204407 459.015961,327.698181 462.695129,327.717224 
	C479.858765,327.806122 497.023315,327.808655 514.186951,327.724365 
	C517.711731,327.707062 518.935059,329.400940 518.922913,332.603973 
	C518.908997,336.269806 518.965515,339.935852 518.977905,343.601837 
	C519.010498,353.230194 519.004150,353.140869 528.679382,352.773132 
	C531.537109,352.664520 533.077515,351.831207 533.032898,348.768341 
	C532.955444,343.437561 532.990784,338.105133 532.973572,332.773407 
	C532.966736,330.644409 532.146667,329.189270 529.781189,329.219360 
	C525.921936,329.268433 525.059204,326.822205 525.035522,323.641235 
	C524.995789,318.308899 524.986084,312.976196 524.908691,307.644440 
	C524.885132,306.021729 525.200134,303.592651 523.195068,303.434296 
	C516.898499,302.936981 517.542603,298.583313 517.615173,293.433441 
z"/>
<path fill="#000000" opacity="1.000000" stroke="none" 
	d="
M601.000000,356.142700 
	C584.519104,356.101257 568.538147,356.064575 552.557251,356.014893 
	C545.484070,355.992920 545.571472,355.980652 545.544189,349.203430 
	C545.452515,326.416870 544.912598,303.624115 545.298767,280.846527 
	C545.538452,266.707214 545.225586,252.572540 545.530334,238.437439 
	C545.604858,234.981842 546.927185,233.628723 550.306213,233.774185 
	C553.796021,233.924423 557.299744,233.927597 560.791260,233.810516 
	C564.588928,233.683167 566.269897,235.337463 566.194336,239.161163 
	C566.089111,244.485580 566.220642,249.814362 566.220520,255.141266 
	C566.220032,279.279480 566.350891,303.419250 566.088257,327.554688 
	C566.031860,332.730682 567.700928,334.015503 572.663940,333.928925 
	C588.639587,333.650330 604.623718,333.849487 620.604553,333.877167 
	C629.287354,333.892212 629.288696,333.903870 629.305176,342.803009 
	C629.309753,345.300049 629.110901,347.815338 629.344666,350.290192 
	C629.768005,354.770905 627.605286,356.147919 623.473022,356.081604 
	C616.150879,355.964081 608.824585,356.107788 601.000000,356.142700 
M548.329590,344.359558 
	C548.332153,352.721802 548.332153,352.732544 556.795654,352.732971 
	C576.621094,352.733948 596.446777,352.778351 616.271851,352.695557 
	C626.743652,352.651825 625.869385,354.370850 626.104553,342.669434 
	C626.186951,338.569092 624.785278,337.160828 620.624939,337.204803 
	C603.966980,337.380859 587.305725,337.285156 570.645935,337.229340 
	C563.004028,337.203766 562.830139,336.992096 562.828369,329.309387 
	C562.821594,300.654297 562.841370,271.999207 562.825195,243.344116 
	C562.824219,241.549927 563.579346,239.098145 561.999390,238.136093 
	C558.401001,235.945053 554.206604,236.889343 550.356812,237.480850 
	C547.423889,237.931503 548.358459,240.931442 548.355713,242.936920 
	C548.309937,276.423553 548.327026,309.910278 548.329590,344.359558 
z"/>
<path fill="#000000" opacity="1.000000" stroke="none" 
	d="
M655.800781,268.003357 
	C655.817871,263.672699 655.867126,259.840851 655.843994,256.009399 
	C655.827393,253.255630 656.795654,251.749023 659.868103,251.549973 
	C674.843689,250.579849 689.810120,251.741898 704.779358,251.565216 
	C707.381897,251.534485 708.443359,252.987534 708.259094,255.346695 
	C707.965881,259.101196 709.305115,261.022186 713.330566,260.703247 
	C716.154175,260.479523 717.122864,262.284302 717.134766,264.802063 
	C717.156006,269.299957 717.088745,273.799377 717.182373,278.295593 
	C717.252380,281.657745 715.712646,283.272369 712.384399,283.155945 
	C709.824707,283.066406 708.202271,283.904175 708.235840,286.797333 
	C708.269043,289.666351 706.465637,290.393463 703.957275,290.386597 
	C689.463257,290.346771 674.968750,290.292694 660.475159,290.375580 
	C656.945740,290.395782 655.755310,288.741425 655.791687,285.495300 
	C655.855042,279.831635 655.804688,274.166718 655.800781,268.003357 
M703.726685,287.172577 
	C705.247681,286.251953 705.147217,284.611084 705.371094,283.189087 
	C705.710022,281.036377 706.816895,279.757690 708.996582,279.950012 
	C713.239624,280.324402 714.082703,277.994324 713.828918,274.445770 
	C713.675171,272.296204 713.720642,270.123688 713.813660,267.967377 
	C713.928833,265.298828 712.808105,263.890594 710.081238,263.856934 
	C706.632996,263.814362 704.815735,262.158875 705.035034,258.610718 
	C705.236633,255.348480 703.667542,254.292862 700.523376,254.322449 
	C688.392822,254.436584 676.259460,254.471313 664.129761,254.321487 
	C660.445190,254.275970 659.102966,255.616180 659.185730,259.271423 
	C659.358765,266.912018 659.397034,274.563995 659.173218,282.201965 
	C659.053101,286.299500 660.467712,287.743896 664.643250,287.656372 
	C677.421448,287.388489 690.207031,287.473236 703.726685,287.172577 
z"/>
<path fill="#000000" opacity="1.000000" stroke="none" 
	d="
M478.041016,312.285156 
	C475.882751,312.281067 474.216309,312.246216 472.551147,312.278717 
	C469.738281,312.333557 467.611267,311.727386 467.626434,308.224976 
	C467.638855,305.353882 467.702393,302.733398 471.605896,302.792145 
	C474.324219,302.833069 474.884399,301.113251 474.876373,298.837036 
	C474.857544,293.506439 474.921051,288.175598 474.905182,282.844971 
	C474.895966,279.740387 475.905243,277.621460 479.460724,277.716888 
	C482.062286,277.786682 482.947266,276.313232 482.949799,273.933685 
	C482.952667,271.268921 483.127686,268.603394 483.094147,265.939850 
	C483.054443,262.782410 484.075287,260.913910 487.664124,260.907196 
	C491.014435,260.900940 493.724213,261.290863 493.802490,265.485962 
	C493.836670,267.316803 494.035767,269.150543 493.969788,270.976074 
	C493.827332,274.917145 493.809967,278.418610 499.514801,277.939819 
	C502.418365,277.696136 502.780701,280.381104 502.821869,282.582947 
	C502.921417,287.911163 502.946045,293.244965 502.808472,298.571564 
	C502.744080,301.065521 503.020172,302.773743 506.112427,302.857697 
	C510.366394,302.973206 509.216827,306.323181 509.331909,308.804474 
	C509.473846,311.864502 507.400574,312.252014 505.020782,312.252228 
	C496.191650,312.253021 487.362518,312.272308 478.041016,312.285156 
M491.072113,278.891937 
	C490.936188,274.906372 490.810211,270.920441 490.658539,266.935455 
	C490.610809,265.680511 490.243866,264.584717 488.748535,264.467865 
	C487.000885,264.331268 486.374023,265.421326 486.342560,266.940887 
	C486.277008,270.104889 486.251678,273.270233 486.254547,276.434998 
	C486.256500,278.630829 485.708191,280.844330 483.237244,280.817841 
	C478.362640,280.765625 477.955811,283.595886 478.219574,287.315796 
	C478.372375,289.470795 478.333710,291.649017 478.236755,293.810272 
	C477.982056,299.487305 480.871216,306.887726 469.968933,306.788086 
	C474.680359,309.761566 503.289795,309.553040 506.894653,306.413116 
	C498.800537,307.172791 499.523407,302.075073 499.665924,297.299011 
	C499.740417,294.802307 499.461121,292.278687 499.721985,289.807343 
	C500.288544,284.439819 499.746857,280.121185 492.743866,280.461060 
	C492.353088,280.480011 491.934784,279.931091 491.072113,278.891937 
z"/>
</svg>